<?xml version="1.0" ?>
<!DOCTYPE svg  PUBLIC '-//W3C//DTD SVG 1.1//EN'  'http://www.w3.org/Graphics/SVG/1.1/DTD/svg11.dtd'>
<!-- Uploaded to: SVG Repo, www.svgrepo.com, Generator: SVG Repo Mixer Tools -->
<svg fill="#000000" width="800px" height="800px" viewBox="0 0 846.66 846.66" style="shape-rendering:geometricPrecision; text-rendering:geometricPrecision; image-rendering:optimizeQuality; fill-rule:evenodd; clip-rule:evenodd" version="1.1" xml:space="preserve" xmlns="http://www.w3.org/2000/svg" xmlns:xlink="http://www.w3.org/1999/xlink">
<defs>
<style type="text/css">
   <![CDATA[
    .fil0 {fill:black;fill-rule:nonzero}
   ]]>
  </style>
</defs>
<g id="Layer_x0020_1">
<path class="fil0" d="M167.29 8.56c170.69,0 341.39,0 512.08,0 55.44,0 100.72,45.28 100.72,100.73l0 628.08c0,55.45 -45.28,100.73 -100.72,100.73l-512.08 0c-55.44,0 -100.72,-45.28 -100.72,-100.73l0 -628.08c0,-55.45 45.28,-100.73 100.72,-100.73zm294 415.43c-27.26,0 -27.26,-41.45 0,-41.45l105.72 0c27.27,0 27.27,41.45 0,41.45l-105.72 0zm0 -96.39c-27.26,0 -27.26,-41.45 0,-41.45l105.72 0c27.27,0 27.27,41.45 0,41.45l-105.72 0zm0 -96.39c-27.26,0 -27.26,-41.46 0,-41.46l105.72 0c27.27,0 27.27,41.46 0,41.46l-105.72 0zm-122.3 -181.19l0 77.55c0,11.44 -9.28,20.73 -20.73,20.73l-84.99 0c-11.44,0 -20.72,-9.29 -20.72,-20.73l0 -77.55 -45.26 0c-32.55,0 -59.27,26.71 -59.27,59.27l0 466.03 630.62 0 0 -466.03c0,-32.56 -26.72,-59.27 -59.27,-59.27l-340.38 0zm-84.99 0l0 56.82 43.53 0 0 -56.82 -43.53 0zm484.64 566.76l-630.62 0 0 120.59c0,32.56 26.72,59.27 59.27,59.27l512.08 0c32.55,0 59.27,-26.71 59.27,-59.27l0 -120.59zm-315.31 81.08c17.4,0 31.5,14.1 31.5,31.5 0,17.4 -14.1,31.51 -31.5,31.51 -17.4,0 -31.5,-14.11 -31.5,-31.51 0,-17.4 14.1,-31.5 31.5,-31.5z"/>
</g>
</svg>